<svg width="40" height="40" viewBox="0 0 40 40" fill="none" xmlns="http://www.w3.org/2000/svg">
<circle cx="20" cy="20" r="20" fill="#FEE4E2"/>
<path d="M24.6667 12.9999V12.0666C24.6667 10.7598 24.6667 10.1064 24.4123 9.60727C24.1886 9.16823 23.8317 8.81127 23.3926 8.58757C22.8935 8.33325 22.2401 8.33325 20.9333 8.33325H19.0667C17.7599 8.33325 17.1065 8.33325 16.6074 8.58757C16.1683 8.81127 15.8114 9.16823 15.5877 9.60727C15.3333 10.1064 15.3333 10.7598 15.3333 12.0666V12.9999M17.6667 19.4166V25.2499M22.3333 19.4166V25.2499M9.5 12.9999H30.5M28.1667 12.9999V26.0666C28.1667 28.0268 28.1667 29.0069 27.7852 29.7556C27.4496 30.4141 26.9142 30.9496 26.2556 31.2851C25.5069 31.6666 24.5268 31.6666 22.5667 31.6666H17.4333C15.4731 31.6666 14.4931 31.6666 13.7444 31.2851C13.0858 30.9496 12.5504 30.4141 12.2148 29.7556C11.8333 29.0069 11.8333 28.0268 11.8333 26.0666V12.9999" stroke="#FF6961" stroke-width="2" stroke-linecap="round" stroke-linejoin="round"/>
</svg>
