<svg width="92" height="89" viewBox="0 0 92 89" fill="none" xmlns="http://www.w3.org/2000/svg">
<path d="M21.8269 10.1354L0 20.1761L0.210888 44.8989L0.527221 69.6216L22.1433 79.2834C34.0585 84.5879 44.392 88.9452 45.1301 88.9452C46.5009 89.0399 88.0459 70.7583 90.3656 69.0533C92.3691 67.443 92.3691 21.5969 90.2602 19.9866C88.0459 18.3763 46.3954 1.52588e-05 45.0246 1.52588e-05C44.2865 0.0947342 33.953 4.54673 21.8269 10.1354ZM61.5794 13.8296C70.6476 17.808 78.0287 21.1233 78.0287 21.3128C78.0287 21.4075 75.9198 22.4494 73.3891 23.5861L68.6441 25.5753L52.8275 18.7552C44.0756 15.061 36.9054 11.651 36.9054 11.1774C36.9054 10.7038 42.8103 7.29371 44.9192 6.63065C45.0246 6.63065 52.5112 9.85123 61.5794 13.8296ZM53.9874 26.0489C57.3616 27.4698 59.8923 28.9853 59.5759 29.3642C59.2596 29.7431 56.0963 31.2587 52.4057 32.6796L45.7628 35.2371L29.5244 28.1328L13.286 21.0286L20.667 17.7133L27.9427 14.398L37.9599 18.9447C43.443 21.4075 50.7186 24.5333 53.9874 26.0489ZM26.5719 33.911C36.3782 38.1735 45.0246 41.6783 45.8682 41.6783C46.8172 41.6783 50.9295 40.068 55.1473 38.1735C59.2596 36.1843 63.0556 34.4793 63.5828 34.2898C64.0046 34.1004 64.3209 36.279 64.3209 39.2155C64.3209 44.8041 64.7427 45.183 69.0659 43.3833C71.4911 42.4361 71.702 41.773 71.702 36.5632V30.7851L77.1851 28.417C80.243 27.0909 83.09 25.8595 83.5118 25.7648C83.9335 25.5753 84.3553 34.2898 84.3553 45.183V64.8855L65.059 73.6L45.8682 82.3146L30.157 75.4945C21.4052 71.7055 12.8642 68.0113 11.1771 67.1588L7.90831 65.6433L7.59198 45.5619C7.48653 34.4793 7.69742 25.5753 8.1192 25.8595C8.64642 26.0489 16.8711 29.7431 26.5719 33.911Z" fill="#6D67C6"/>
</svg>
